{"title":"BloodRayne 2005 DVDrip English Klam","uid":6478386,"size":1476742174,"categoryP":"video","categoryS":"movies","magnet":"?xt=urn:btih:b4fb36d63022317a4c6ad8561e53ece5201ba0ec&amp;dn=BloodRayne+2005+DVDrip+English+Klam&amp;tr=udp%3A%2F%2Ftracker.openbittorrent.com%3A80&amp;tr=udp%3A%2F%2Fopen.demonii.com%3A1337&amp;tr=udp%3A%2F%2Ftracker.coppersurfer.tk%3A6969&amp;tr=udp%3A%2F%2Fexodus.desync.com%3A6969","seeders":0,"leechers":0,"uploader":"Klambake","files":-1,"time":1308403686,"description":"[img] http://img844.imageshack.us/img844/6673/11111111hq.jpg[/img]\n\nWith: Kristanna Loken, Ben Kingsley and Michelle Rodriguez\n\nDirector:Uwe Boll\nBloodRayne 2005,\nIn het RoemeniÃƒÂ« van de 18de eeuw probeert Bloodrayne, een jonge dhampir (half mens/half vampier), de verkrachting van haar moeder en moord op haar vader te wreken. Bloodrayne is opgegroeid in een circus en kent haar krachten nog niet, totdat ze voor het eerst menselijk bloed proeft. Ze veranderd in een bloeddorstige vampierenjager en wordt door twee andere jagers ingeschakeld om een aantal levensgevaarlijke monsters te vernietigen.\n\nIn the Eighteenth Century, Rayne is the half-human half-vampire Dhampir and the lead attraction in a carnival's freak-show in Romania...\n\n------------------ Dutch Friends ------------------\n\nYou can find my Friends at: http://www.Film-Test.nl \n                    \n------ They got my dutchs subs ---- and more ------\n\nGeneral:\n\nComplete name                    : BloodRayne\\BloodRayne.avi\nFormat                           : AVI\nFormat/Info                      : Audio Video Interleave\nFile size                        : 1.37 GiB\nDuration                         : 1h 30mn\nOverall bit rate                 : 2 172 Kbps\n\nVideo:\n\nFormat                           : MPEG-4 Visual\nFormat profile                   : Simple@L1\nFormat settings, BVOP            : No\nFormat settings, QPel            : No\nFormat settings, GMC             : No warppoints\nFormat settings, Matrix          : Default (H.263)\nCodec ID                         : DX50\nCodec ID/Hint                    : DivX 5\nDuration                         : 1h 30mn\nBit rate                         : 1 713 Kbps\nWidth                            : 720 pixels\nHeight                           : 304 pixels\nDisplay aspect ratio             : 2.35:1\nFrame rate                       : 25.000 fps\nColor space                      : YUV\nChroma subsampling               : 4:2:0\nBit depth                        : 8 bits\nScan type                        : Progressive\nBits/(Pixel*Frame)               : 0.313\nStream size                      : 1.08 GiB (79%)\nWriting library                  : Lavc52.0.0\n\nAudio:\n\nFormat                           : AC-3\nFormat/Info                      : Audio Coding 3\nMode extension                   : CM (complete main)\nCodec ID                         : 2000\nDuration                         : 1h 30mn\nBit rate mode                    : Constant\nBit rate                         : 448 Kbps\nChannel(s)                       : 6 channels\nChannel positions                : Front: L C R, Side: L R, LFE\nSampling rate                    : 48.0 KHz\nBit depth                        : 16 bits\nStream size                      : 290 MiB (21%)\nAlignment                        : Aligned on interleaves\nInterleave, duration             : 32 ms (0.80 video frame)\nInterleave, preload duration     : 704 ms\n\n","torrent":{"xt":"urn:btih:b4fb36d63022317a4c6ad8561e53ece5201ba0ec","amp;dn":"BloodRayne+2005+DVDrip+English+Klam","amp;tr":["udp%3A%2F%2Ftracker.openbittorrent.com%3A80","udp%3A%2F%2Fopen.demonii.com%3A1337","udp%3A%2F%2Ftracker.coppersurfer.tk%3A6969","udp%3A%2F%2Fexodus.desync.com%3A6969"],"infoHash":"b4fb36d63022317a4c6ad8561e53ece5201ba0ec","infoHashBuffer":{"type":"Buffer","data":[180,251,54,214,48,34,49,122,76,106,216,86,30,83,236,229,32,27,160,236]},"announce":[],"urlList":[]}}